<svg xmlns="http://www.w3.org/2000/svg" xmlns:xlink="http://www.w3.org/1999/xlink" width="500" zoomAndPan="magnify" viewBox="0 0 375 374.999991" height="500" preserveAspectRatio="xMidYMid meet" version="1.0"><defs><g/><clipPath id="edf3ee00b9"><path d="M 84.375 108.976562 L 277.875 108.976562 L 277.875 198.226562 L 84.375 198.226562 Z M 84.375 108.976562 " clip-rule="nonzero"/></clipPath><clipPath id="0de66ed809"><path d="M 155.683594 118.921875 L 268.933594 118.921875 L 268.933594 187.921875 L 155.683594 187.921875 Z M 155.683594 118.921875 " clip-rule="nonzero"/></clipPath></defs><g clip-path="url(#edf3ee00b9)"><path fill="#000000" d="M 84.375 108.980469 L 277.875 108.980469 L 277.875 198.226562 L 84.375 198.226562 L 84.375 108.980469 " fill-opacity="1" fill-rule="nonzero"/></g><g clip-path="url(#0de66ed809)"><path fill="#ff9f0c" d="M 172.960938 118.921875 L 251.652344 118.921875 C 256.234375 118.921875 260.628906 120.746094 263.867188 123.992188 C 267.109375 127.238281 268.929688 131.640625 268.929688 136.234375 L 268.929688 170.609375 C 268.929688 175.199219 267.109375 179.601562 263.867188 182.851562 C 260.628906 186.097656 256.234375 187.921875 251.652344 187.921875 L 172.960938 187.921875 C 168.378906 187.921875 163.984375 186.097656 160.746094 182.851562 C 157.503906 179.601562 155.683594 175.199219 155.683594 170.609375 L 155.683594 136.234375 C 155.683594 131.640625 157.503906 127.238281 160.746094 123.992188 C 163.984375 120.746094 168.378906 118.921875 172.960938 118.921875 " fill-opacity="1" fill-rule="nonzero"/></g><g fill="#000000" fill-opacity="1"><g transform="translate(159.563564, 167.545448)"><g><path d="M 2.9375 0 L 2.9375 -27.125 L 10.265625 -27.125 L 10.265625 -5.921875 L 20.703125 -5.921875 L 20.703125 0 Z M 2.9375 0 "/></g></g></g><g fill="#000000" fill-opacity="1"><g transform="translate(181.676204, 167.545448)"><g><path d="M 9.765625 0 L 2.5 0 L 2.5 -28.875 L 9.765625 -28.875 Z M 9.765625 0 "/></g></g></g><g fill="#000000" fill-opacity="1"><g transform="translate(193.956881, 167.545448)"><g><path d="M 12.65625 0.375 C 9.15625 0.375 6.4375 -0.554688 4.5 -2.421875 C 2.5625 -4.285156 1.59375 -6.9375 1.59375 -10.375 C 1.59375 -13.925781 2.488281 -16.648438 4.28125 -18.546875 C 6.082031 -20.441406 8.644531 -21.390625 11.96875 -21.390625 C 15.132812 -21.390625 17.578125 -20.5625 19.296875 -18.90625 C 21.023438 -17.257812 21.890625 -14.882812 21.890625 -11.78125 L 21.890625 -8.546875 L 8.921875 -8.546875 C 8.972656 -7.378906 9.40625 -6.457031 10.21875 -5.78125 C 11.03125 -5.113281 12.132812 -4.78125 13.53125 -4.78125 C 14.800781 -4.78125 15.96875 -4.898438 17.03125 -5.140625 C 18.101562 -5.390625 19.265625 -5.804688 20.515625 -6.390625 L 20.515625 -1.171875 C 19.378906 -0.585938 18.203125 -0.1875 16.984375 0.03125 C 15.773438 0.257812 14.332031 0.375 12.65625 0.375 Z M 12.234375 -16.453125 C 11.378906 -16.453125 10.660156 -16.179688 10.078125 -15.640625 C 9.503906 -15.109375 9.171875 -14.269531 9.078125 -13.125 L 15.3125 -13.125 C 15.28125 -14.132812 14.988281 -14.941406 14.4375 -15.546875 C 13.894531 -16.148438 13.160156 -16.453125 12.234375 -16.453125 Z M 12.234375 -16.453125 "/></g></g></g><g fill="#000000" fill-opacity="1"><g transform="translate(217.442284, 167.545448)"><g><path d="M 8.015625 0 L 0 -21.015625 L 7.578125 -21.015625 L 11.140625 -8.59375 C 11.148438 -8.53125 11.171875 -8.421875 11.203125 -8.265625 C 11.242188 -8.117188 11.28125 -7.941406 11.3125 -7.734375 C 11.351562 -7.535156 11.390625 -7.320312 11.421875 -7.09375 C 11.453125 -6.863281 11.46875 -6.648438 11.46875 -6.453125 L 11.59375 -6.453125 C 11.59375 -7.097656 11.707031 -7.796875 11.9375 -8.546875 L 15.65625 -21.015625 L 23.21875 -21.015625 L 15.203125 0 Z M 8.015625 0 "/></g></g></g><g fill="#000000" fill-opacity="1"><g transform="translate(240.649424, 167.545448)"><g><path d="M 22.578125 -10.5625 C 22.578125 -7.125 21.648438 -4.441406 19.796875 -2.515625 C 17.953125 -0.585938 15.367188 0.375 12.046875 0.375 C 8.847656 0.375 6.304688 -0.609375 4.421875 -2.578125 C 2.535156 -4.546875 1.59375 -7.207031 1.59375 -10.5625 C 1.59375 -13.988281 2.515625 -16.648438 4.359375 -18.546875 C 6.210938 -20.441406 8.8125 -21.390625 12.15625 -21.390625 C 14.21875 -21.390625 16.039062 -20.953125 17.625 -20.078125 C 19.207031 -19.203125 20.425781 -17.941406 21.28125 -16.296875 C 22.144531 -14.660156 22.578125 -12.75 22.578125 -10.5625 Z M 8.96875 -10.5625 C 8.96875 -8.75 9.207031 -7.367188 9.6875 -6.421875 C 10.164062 -5.484375 10.972656 -5.015625 12.109375 -5.015625 C 13.242188 -5.015625 14.039062 -5.484375 14.5 -6.421875 C 14.96875 -7.367188 15.203125 -8.75 15.203125 -10.5625 C 15.203125 -12.351562 14.960938 -13.707031 14.484375 -14.625 C 14.015625 -15.539062 13.210938 -16 12.078125 -16 C 10.960938 -16 10.164062 -15.539062 9.6875 -14.625 C 9.207031 -13.71875 8.96875 -12.363281 8.96875 -10.5625 Z M 8.96875 -10.5625 "/></g></g></g><g fill="#ffffff" fill-opacity="1"><g transform="translate(97.485797, 167.545448)"><g><path d="M 14.90625 0 L 7.578125 0 L 7.578125 -21.140625 L 0.953125 -21.140625 L 0.953125 -27.125 L 21.5 -27.125 L 21.5 -21.140625 L 14.90625 -21.140625 Z M 14.90625 0 "/></g></g></g><g fill="#ffffff" fill-opacity="1"><g transform="translate(119.932352, 167.545448)"><g><path d="M 12.65625 0.375 C 9.15625 0.375 6.4375 -0.554688 4.5 -2.421875 C 2.5625 -4.285156 1.59375 -6.9375 1.59375 -10.375 C 1.59375 -13.925781 2.488281 -16.648438 4.28125 -18.546875 C 6.082031 -20.441406 8.644531 -21.390625 11.96875 -21.390625 C 15.132812 -21.390625 17.578125 -20.5625 19.296875 -18.90625 C 21.023438 -17.257812 21.890625 -14.882812 21.890625 -11.78125 L 21.890625 -8.546875 L 8.921875 -8.546875 C 8.972656 -7.378906 9.40625 -6.457031 10.21875 -5.78125 C 11.03125 -5.113281 12.132812 -4.78125 13.53125 -4.78125 C 14.800781 -4.78125 15.96875 -4.898438 17.03125 -5.140625 C 18.101562 -5.390625 19.265625 -5.804688 20.515625 -6.390625 L 20.515625 -1.171875 C 19.378906 -0.585938 18.203125 -0.1875 16.984375 0.03125 C 15.773438 0.257812 14.332031 0.375 12.65625 0.375 Z M 12.234375 -16.453125 C 11.378906 -16.453125 10.660156 -16.179688 10.078125 -15.640625 C 9.503906 -15.109375 9.171875 -14.269531 9.078125 -13.125 L 15.3125 -13.125 C 15.28125 -14.132812 14.988281 -14.941406 14.4375 -15.546875 C 13.894531 -16.148438 13.160156 -16.453125 12.234375 -16.453125 Z M 12.234375 -16.453125 "/></g></g></g></svg>